<svg width="22" height="19" viewBox="0 0 22 19" fill="none" xmlns="http://www.w3.org/2000/svg">
<path id="Vector - 0" fill-rule="evenodd" clip-rule="evenodd" d="M19.75 0.5H13.75C12.5697 0.5 11.4582 1.05573 10.75 2C10.0418 1.05573 8.93034 0.5 7.75 0.5H1.75C0.921573 0.5 0.25 1.17157 0.25 2V14C0.25 14.8284 0.921573 15.5 1.75 15.5H7.75C8.99264 15.5 10 16.5074 10 17.75C10 18.1642 10.3358 18.5 10.75 18.5C11.1642 18.5 11.5 18.1642 11.5 17.75C11.5 16.5074 12.5074 15.5 13.75 15.5H19.75C20.5784 15.5 21.25 14.8284 21.25 14V2C21.25 1.17157 20.5784 0.5 19.75 0.5ZM7.75 14H1.75V2H7.75C8.99264 2 10 3.00736 10 4.25V14.75C9.3515 14.262 8.5616 13.9987 7.75 14ZM19.75 14H13.75C12.9384 13.9987 12.1485 14.262 11.5 14.75V4.25C11.5 3.00736 12.5074 2 13.75 2H19.75V14Z" fill="#4F7396"/>
</svg>
