<svg width="19" height="19" viewBox="0 0 19 19" fill="none" xmlns="http://www.w3.org/2000/svg">
<path id="Vector - 0" fill-rule="evenodd" clip-rule="evenodd" d="M18.2653 7.72844L10.7653 0.652188C10.7616 0.648989 10.7582 0.645543 10.755 0.641875C10.1828 0.121501 9.30876 0.121501 8.73656 0.641875L8.72625 0.652188L1.23469 7.72844C0.92573 8.01254 0.749936 8.41309 0.75 8.83281V17.5C0.75 18.3284 1.42157 19 2.25 19H6.75C7.57843 19 8.25 18.3284 8.25 17.5V13H11.25V17.5C11.25 18.3284 11.9216 19 12.75 19H17.25C18.0784 19 18.75 18.3284 18.75 17.5V8.83281C18.7501 8.41309 18.5743 8.01254 18.2653 7.72844V7.72844ZM17.25 17.5H12.75V13C12.75 12.1716 12.0784 11.5 11.25 11.5H8.25C7.42157 11.5 6.75 12.1716 6.75 13V17.5H2.25V8.83281L2.26031 8.82344L9.75 1.75L17.2406 8.82156L17.2509 8.83094L17.25 17.5Z" fill="#4F7396"/>
</svg>
