<svg width="17" height="19" viewBox="0 0 17 19" fill="none" xmlns="http://www.w3.org/2000/svg">
<path id="Vector - 0" fill-rule="evenodd" clip-rule="evenodd" d="M15.9656 2.28188L8.46562 0.0318749C8.23857 -0.0362808 7.99266 0.00692388 7.80243 0.148392C7.61221 0.289861 7.50007 0.512937 7.5 0.75V10.8994C5.91713 9.48362 3.55995 9.36716 1.84523 10.62C0.130519 11.8728 -0.474929 14.1539 0.392793 16.0922C1.26051 18.0305 3.36519 19.0983 5.4418 18.6538C7.51841 18.2094 9.00164 16.3736 9 14.25V6.25781L15.5344 8.21813C15.7614 8.28628 16.0073 8.24308 16.1976 8.10161C16.3878 7.96014 16.4999 7.73706 16.5 7.5V3C16.4999 2.66892 16.2827 2.37706 15.9656 2.28188V2.28188ZM4.5 17.25C2.84315 17.25 1.5 15.9069 1.5 14.25C1.5 12.5931 2.84315 11.25 4.5 11.25C6.15685 11.25 7.5 12.5931 7.5 14.25C7.5 15.9069 6.15685 17.25 4.5 17.25V17.25ZM15 6.49219L9 4.69219V1.75781L15 3.5625V6.49219Z" fill="#4F7396"/>
</svg>
