<svg width="22" height="19" viewBox="0 0 22 19" fill="none" xmlns="http://www.w3.org/2000/svg">
<path fill-rule="evenodd" clip-rule="evenodd" d="M21.4203 17.9144L16.1703 7.41438C16.0433 7.16033 15.7836 6.99986 15.4995 6.99986C15.2155 6.99986 14.9558 7.16033 14.8287 7.41438L12.7934 11.4859C11.1981 11.3962 9.66312 10.8452 8.375 9.89969C9.88633 8.28575 10.802 6.20463 10.9709 4H13.25C13.6642 4 14 3.66421 14 3.25C14 2.83579 13.6642 2.5 13.25 2.5H8V1C8 0.585786 7.66421 0.25 7.25 0.25C6.83579 0.25 6.5 0.585786 6.5 1V2.5H1.25C0.835786 2.5 0.5 2.83579 0.5 3.25C0.5 3.66421 0.835786 4 1.25 4H9.46531C9.29827 5.83811 8.51802 7.56667 7.25 8.90781C6.45984 8.07406 5.85306 7.08406 5.46875 6.00156C5.38274 5.7445 5.16471 5.55385 4.89848 5.5029C4.63224 5.45195 4.35922 5.54863 4.18438 5.75577C4.00953 5.96291 3.96007 6.24828 4.055 6.50219C4.50244 7.76769 5.20726 8.92674 6.125 9.90625C4.71197 10.9446 3.00353 11.5031 1.25 11.5C0.835786 11.5 0.5 11.8358 0.5 12.25C0.5 12.6642 0.835786 13 1.25 13C3.42555 13.0024 5.53875 12.2734 7.25 10.93C8.64648 12.0211 10.3135 12.7117 12.0725 12.9278L9.57875 17.9144C9.39339 18.2848 9.54344 18.7354 9.91391 18.9208C10.2844 19.1061 10.735 18.9561 10.9203 18.5856L12.2131 16H18.7859L20.0788 18.5856C20.2059 18.8398 20.4658 19.0002 20.75 19C21.0099 18.9999 21.2512 18.8652 21.3878 18.644C21.5243 18.4229 21.5366 18.1468 21.4203 17.9144ZM12.9631 14.5L15.5 9.42719L18.0359 14.5H12.9631Z" fill="#0D141C"/>
</svg>
