<svg width="21" height="20" viewBox="0 0 21 20" fill="none" xmlns="http://www.w3.org/2000/svg">
<path id="Vector - 0" fill-rule="evenodd" clip-rule="evenodd" d="M13.5791 0.325938C13.3218 0.200554 13.0155 0.23256 12.7897 0.408437L6.24219 5.5H2C1.17157 5.5 0.5 6.17157 0.5 7V13C0.5 13.8284 1.17157 14.5 2 14.5H6.24219L12.7897 19.5916C13.0157 19.7673 13.3221 19.799 13.5793 19.6733C13.8366 19.5475 13.9998 19.2863 14 19V1C14 0.713331 13.8367 0.451714 13.5791 0.325938ZM12.5 17.4662L6.96031 13.1584C6.82897 13.0555 6.66686 12.9997 6.5 13H2V7H6.5C6.66686 7.00027 6.82897 6.94447 6.96031 6.84156L12.5 2.53375V17.4662ZM17.75 7.75V12.25C17.75 12.6642 17.4142 13 17 13C16.5858 13 16.25 12.6642 16.25 12.25V7.75C16.25 7.33579 16.5858 7 17 7C17.4142 7 17.75 7.33579 17.75 7.75ZM20.75 6.25V13.75C20.75 14.1642 20.4142 14.5 20 14.5C19.5858 14.5 19.25 14.1642 19.25 13.75V6.25C19.25 5.83579 19.5858 5.5 20 5.5C20.4142 5.5 20.75 5.83579 20.75 6.25Z" fill="#0D141C"/>
</svg>
